<svg width="337" height="155" viewBox="0 0 337 155" fill="none" xmlns="http://www.w3.org/2000/svg">
<path fill-rule="evenodd" clip-rule="evenodd" d="M159.18 98.2798C139.276 95.0301 152.373 39.9677 157.45 18.621C158.623 13.6925 159.367 10.5612 159.18 10.2798C158.897 9.85523 157.332 9.27043 155.642 8.63879C151.36 7.03883 146.275 5.13829 159.18 4.77979C162.275 4.69382 169.006 4.327 178.092 3.83183L178.092 3.83182C221.853 1.44703 320.243 -3.91486 330.18 4.77979C342.18 15.2798 335.18 86.2798 330.18 98.2798C325.18 110.28 194.68 182.78 249.18 142.28C303.68 101.78 284.68 98.2798 284.68 98.2798C284.68 98.2798 183.68 102.28 159.18 98.2798ZM14.8 84.7798C11.8667 84.7798 9.28 84.0065 7.04 82.4598C4.8 80.9131 3.06667 78.7265 1.84 75.8998C0.613333 73.0198 0 69.7131 0 65.9798C0 60.0064 1.33333 54.6465 4 49.8998C6.72 45.1531 10.4533 41.4465 15.2 38.7798C20 36.1131 25.4133 34.7798 31.44 34.7798C33.7867 34.7798 36.0533 34.9931 38.24 35.4198C38.6802 36.3368 38.969 37.4936 39.1064 38.89C39.6469 38.4708 40.2115 38.1141 40.8 37.8198C42.24 37.1264 43.7867 36.7798 45.44 36.7798C47.0933 36.7798 48.3733 37.2331 49.28 38.1398C50.24 39.0464 50.72 40.3531 50.72 42.0598C50.72 43.1798 50.5333 44.6998 50.16 46.6198C49.7867 48.4864 49.28 50.7531 48.64 53.4198C47.52 58.1664 46.6667 62.2198 46.08 65.5798C45.4933 68.9398 45.2 72.2198 45.2 75.4198C45.2 78.2998 45.8933 80.3265 47.28 81.4998C44.6667 83.6865 41.8667 84.7798 38.88 84.7798C36.5333 84.7798 34.72 84.0865 33.44 82.6998C32.16 81.3131 31.52 79.3398 31.52 76.7798C31.52 75.7665 31.6533 74.5398 31.92 73.0998L31.12 72.6998C29.4133 76.5398 27.12 79.5264 24.24 81.6598C21.4133 83.7398 18.2667 84.7798 14.8 84.7798ZM31.12 65.4998C33.8343 60.1777 35.805 52.0142 37.0322 41.0095C32.9809 41.2739 29.2768 42.2906 25.92 44.0598C22.0267 46.0865 18.9867 48.8598 16.8 52.3798C14.6133 55.8464 13.52 59.7131 13.52 63.9798C13.52 66.9665 14.1333 69.2865 15.36 70.9398C16.64 72.5931 18.4 73.4198 20.64 73.4198C24.96 73.4198 28.4533 70.7798 31.12 65.4998ZM70.3256 84.7798C63.979 84.7798 59.259 83.9531 56.1656 82.2998C53.0723 80.6465 51.5256 78.4065 51.5256 75.5798C51.5256 74.2998 51.8723 73.0198 52.5656 71.7398C53.3123 70.4598 54.3523 69.3665 55.6856 68.4598C57.0723 71.0731 58.939 73.0998 61.2856 74.5398C63.6323 75.9798 66.379 76.6998 69.5256 76.6998C72.0856 76.6998 74.379 76.1664 76.4056 75.0998C78.4856 74.0331 79.5256 72.5131 79.5256 70.5398C79.5256 69.3131 78.8056 68.3265 77.3656 67.5798C75.979 66.8331 73.7123 65.9265 70.5656 64.8598C67.2056 63.8464 64.4323 62.8331 62.2456 61.8198C60.059 60.8065 58.1656 59.4198 56.5656 57.6598C54.9656 55.8464 54.1656 53.5531 54.1656 50.7798C54.1656 47.3131 55.259 44.3798 57.4456 41.9798C59.6856 39.5798 62.6723 37.7931 66.4056 36.6198C70.1923 35.3931 74.4323 34.7798 79.1256 34.7798C84.1923 34.7798 88.2456 35.5531 91.2856 37.0998C94.379 38.6464 95.9256 40.6731 95.9256 43.1798C95.9256 45.4198 95.1523 47.1798 93.6056 48.4598C92.059 49.6864 90.139 50.2998 87.8456 50.2998C85.7123 50.2998 83.7656 49.6331 82.0056 48.2998C80.299 46.9131 78.9656 44.9398 78.0056 42.3798C74.9123 42.6998 72.379 43.4731 70.4056 44.6998C68.4856 45.9265 67.5256 47.4198 67.5256 49.1798C67.5256 50.1398 67.9256 50.9665 68.7256 51.6598C69.5256 52.3531 70.5123 52.9398 71.6856 53.4198C72.859 53.8464 74.5656 54.4331 76.8056 55.1798C80.1656 56.2465 82.9123 57.2865 85.0456 58.2998C87.179 59.2598 89.019 60.6465 90.5656 62.4598C92.1123 64.2731 92.8856 66.5931 92.8856 69.4198C92.8856 72.7265 91.7923 75.5531 89.6056 77.8998C87.4723 80.1931 84.6723 81.8998 81.2056 83.0198C77.739 84.1931 74.1123 84.7798 70.3256 84.7798ZM112.067 74.2998C112.067 72.4985 112.117 70.6971 112.216 68.8958L119.42 64.8639L124.627 74.3798C126.707 78.1664 128.627 80.8598 130.387 82.4598C132.147 84.0065 134.28 84.7798 136.787 84.7798C138.92 84.7798 140.867 84.2465 142.627 83.1798C144.387 82.1131 145.907 80.5131 147.187 78.3798C144.467 77.3131 142.28 75.8998 140.627 74.1398C138.974 72.3798 137.507 70.1931 136.227 67.5798L131.108 58.2511C135.579 55.5349 138.939 52.9645 141.187 50.5398C143.96 47.5531 145.347 44.5665 145.347 41.5798C145.347 39.4998 144.707 37.8464 143.427 36.6198C142.147 35.3931 140.467 34.7798 138.387 34.7798C137.107 34.7798 135.774 34.9664 134.387 35.3398C133 35.7131 131.614 36.2998 130.227 37.0998C130.654 38.2198 130.867 39.3398 130.867 40.4598C130.867 42.3264 130.307 44.1665 129.187 45.9798C128.12 47.7931 126.68 49.5798 124.867 51.3398C123.107 53.0464 120.68 55.1531 117.587 57.6598L112.918 61.3855C113.068 60.2503 113.238 59.115 113.427 57.9798C114.387 52.5398 115.64 46.3798 117.187 39.4998C117.934 36.1398 118.52 33.3664 118.947 31.1798C119.374 28.9398 119.587 27.2064 119.587 25.9798C119.587 24.1131 119.134 22.7798 118.227 21.9798C117.374 21.1798 115.907 20.7798 113.827 20.7798C111.8 20.7798 109.64 21.2331 107.347 22.1398C105.107 22.9931 103.027 24.1664 101.107 25.6598L105.187 31.1798C104.92 32.5131 104.654 33.9531 104.387 35.4998C104.12 36.9931 103.854 38.5665 103.587 40.2198C102.04 48.8065 100.787 56.2731 99.8269 62.6198C98.8669 68.9665 98.3869 73.1798 98.3869 75.2598C98.3869 78.5131 98.9735 80.9131 100.147 82.4598C101.32 84.0065 103.214 84.7798 105.827 84.7798C107.267 84.7798 108.707 84.4864 110.147 83.8998C111.64 83.3665 113 82.5665 114.227 81.4998C113.534 80.6465 113 79.7131 112.627 78.6998C112.254 77.6865 112.067 76.2198 112.067 74.2998ZM179.284 38.561C177.975 42.0181 177.321 45.9634 177.321 50.397C177.321 57.7798 178.727 63.4536 181.539 67.4185C184.352 71.3833 188.932 73.3657 195.28 73.3657C197.994 73.3657 200.446 72.936 202.633 72.0767C204.821 71.2173 206.588 70.2505 207.936 69.1763C209.284 68.102 210.114 67.2427 210.426 66.5981C210.309 65.6411 210.075 64.7915 209.723 64.0493C209.391 63.3071 209.02 62.6821 208.61 62.1743C208.219 61.6665 207.653 61.0122 206.91 60.2114C204.938 61.3247 203.112 62.1743 201.432 62.7603C199.772 63.3267 197.955 63.6099 195.983 63.6099C194.518 63.6099 193.414 63.4048 192.672 62.9946C191.95 62.5845 191.442 61.9985 191.149 61.2368C190.856 60.4751 190.582 59.3325 190.328 57.8091C190.055 56.188 189.918 54.0688 189.918 51.4517C189.918 50.3384 189.928 49.5083 189.948 48.9614C190.045 44.4106 190.514 40.7876 191.354 38.0923C191.666 38.0728 192.155 38.063 192.819 38.063C195.28 38.063 197.203 38.2583 198.59 38.6489L199.616 48.522C200.026 48.7563 200.631 48.9419 201.432 49.0786C202.233 49.2153 203.092 49.2837 204.01 49.2837C204.752 49.2837 205.299 49.2446 205.651 49.1665C206.002 49.0688 206.432 48.8931 206.94 48.6392C207.448 48.0532 207.975 46.7739 208.522 44.8013C209.088 42.8091 209.557 40.6704 209.928 38.3853C210.299 36.0806 210.485 34.2349 210.485 32.8481C209.762 31.8911 209 31.0806 208.2 30.4165C207.418 29.7329 206.5 29.0786 205.446 28.4536C202.184 27.6919 199.088 27.311 196.159 27.311C191.862 27.311 188.307 28.3169 185.494 30.3286C182.682 32.3403 180.612 35.0845 179.284 38.561ZM215.7 35.0454C215.348 38.4438 215.172 44.6743 215.172 53.7368L215.201 62.5845C215.201 64.3228 215.241 65.8755 215.319 67.2427C215.397 68.5903 215.475 69.645 215.553 70.4067C215.631 71.1489 215.68 71.6079 215.7 71.7837C215.7 71.8423 215.875 72.0083 216.227 72.2817C216.578 72.5356 217.184 72.7798 218.043 73.0142C218.922 73.2485 220.084 73.3657 221.53 73.3657C223.131 73.3657 224.479 73.1411 225.573 72.6919C226.666 72.2427 227.389 71.686 227.741 71.022C227.311 69.5962 226.95 68.063 226.657 66.4224C226.364 64.7622 226.217 63.4438 226.217 62.4673C226.217 62.2134 226.237 61.9497 226.276 61.6763C226.823 60.3677 227.76 58.395 229.088 55.7583C230.416 53.1216 231.422 51.3638 232.106 50.4849C232.848 50.5239 233.473 50.8169 233.981 51.3638C233.825 53.3169 233.668 55.895 233.512 59.0981C233.356 62.3013 233.278 64.8599 233.278 66.7739C233.278 69.1763 233.864 70.8755 235.035 71.8716C236.207 72.8677 237.721 73.3657 239.576 73.3657C241.432 73.3657 243.073 72.9458 244.498 72.106C245.944 71.2466 247.106 70.3286 247.985 69.352C248.864 68.356 249.303 67.7895 249.303 67.6528C249.049 65.4849 248.16 63.7466 246.637 62.438L242.301 64.2544L242.242 64.1958C242.555 63.3364 242.692 62.9556 242.653 63.0532C243.551 60.4556 244.303 57.9653 244.909 55.5825C245.514 53.1802 245.817 50.6899 245.817 48.1118C245.817 45.2212 245.133 42.8286 243.766 40.9341C242.399 39.02 240.153 38.063 237.028 38.063C234.508 38.063 232.457 38.8735 230.875 40.4946C229.293 42.1157 228.112 43.9712 227.33 46.061C226.549 48.1509 225.768 50.7485 224.987 53.854C224.928 53.9907 224.811 54.0591 224.635 54.0591C224.479 54.0591 224.332 54.0103 224.196 53.9126C224.059 53.8149 223.991 53.7075 223.991 53.5903C224.479 51.3833 224.909 48.8735 225.28 46.061C225.651 43.229 225.934 40.5825 226.129 38.1216C226.325 35.6411 226.422 33.8442 226.422 32.731C226.422 30.1919 225.836 28.3071 224.664 27.0767C223.492 25.8462 221.705 25.231 219.303 25.231C218.248 25.231 217.184 25.436 216.11 25.8462C215.055 26.2563 214.127 26.7349 213.326 27.2817C212.526 27.8286 211.979 28.2876 211.686 28.6587C211.686 30.729 211.92 32.6626 212.389 34.4595L215.7 35.0454ZM264.713 53.8247C263.326 53.5903 262.057 53.4731 260.905 53.4731C257.819 53.4731 255.465 54.3228 253.844 56.022C252.223 57.7017 251.412 60.1626 251.412 63.4048C251.412 65.436 251.823 67.2134 252.643 68.7368C253.463 70.2407 254.528 71.3931 255.836 72.1938C257.145 72.9751 258.502 73.3657 259.909 73.3657C262.057 73.3657 264.02 72.7993 265.797 71.6665C267.575 70.5337 268.737 68.4243 269.284 65.3384L270.162 65.602C269.909 66.481 269.782 67.3501 269.782 68.2095C269.782 69.7329 270.192 70.9731 271.012 71.9302C271.852 72.8872 273.082 73.3657 274.703 73.3657C276.149 73.3657 277.535 73.0142 278.864 72.311C280.192 71.6079 281.315 70.8071 282.233 69.9087C283.151 68.9907 283.746 68.2388 284.02 67.6528C283.903 66.52 283.619 65.5239 283.17 64.6645C282.741 63.7856 282.242 63.0435 281.676 62.438L277.428 64.2544C277.448 64.1958 277.828 62.6626 278.571 59.6548C279.332 56.6274 279.713 53.5024 279.713 50.2798C279.713 46.979 279.02 44.4302 277.633 42.6333C276.246 40.8364 274.479 39.6255 272.33 39.0005C270.182 38.3755 267.721 38.063 264.948 38.063C259.928 38.063 255.836 39.2935 252.672 41.7544C252.614 42.1255 252.584 42.4966 252.584 42.8677C252.584 44.0786 252.819 45.2895 253.287 46.5005C253.776 47.6919 254.42 48.9517 255.221 50.2798C256.705 49.811 258.053 49.4399 259.264 49.1665C260.494 48.8735 261.686 48.727 262.838 48.727C264.713 48.727 266.061 48.9028 266.881 49.2544C267.721 49.606 268.229 49.9478 268.405 50.2798C268.463 50.5142 268.502 51.0024 268.522 51.7446C268.561 52.4868 268.58 53.1606 268.58 53.7661V54.6743C267.409 54.3423 266.119 54.0591 264.713 53.8247ZM265.973 63.8149C265.309 64.2642 264.733 64.5376 264.244 64.6353C263.561 64.5767 263.053 64.2935 262.721 63.7856C262.409 63.2778 262.252 62.7114 262.252 62.0864C262.252 61.227 262.565 60.4458 263.19 59.7427C263.561 59.5864 264.244 59.5083 265.241 59.5083C266.412 59.5083 267.516 59.5767 268.551 59.7134L268.727 60.4165C268.629 60.9829 268.317 61.5786 267.789 62.2036C267.262 62.8286 266.657 63.3657 265.973 63.8149ZM288.004 47.9067C287.907 50.5239 287.858 53.4243 287.858 56.6079C287.858 60.6313 287.926 63.8442 288.063 66.2466C288.317 70.9927 290.387 73.3657 294.274 73.3657C296.5 73.3657 298.561 72.8872 300.455 71.9302C302.35 70.9536 303.922 69.8989 305.172 68.7661C306.442 67.6138 307.076 66.9692 307.076 66.8325C306.764 64.352 305.895 62.5161 304.469 61.3247L297.584 63.4634L297.526 63.4048L297.672 62.4087C298.61 56.2368 299.215 51.5591 299.489 48.3755C301.735 48.3169 303.502 48.1802 304.791 47.9653C305.221 46.9302 305.553 46.0024 305.787 45.1821C306.041 44.3618 306.168 43.4438 306.168 42.4282C306.168 40.9634 305.807 39.606 305.084 38.356L299.928 39.2935C300.065 37.5161 300.133 35.9243 300.133 34.5181C300.133 33.6587 300.104 32.897 300.045 32.2329C299.44 31.9595 298.727 31.7446 297.907 31.5884C297.106 31.4126 296.276 31.3247 295.416 31.3247C294.401 31.3247 293.453 31.4419 292.575 31.6763C291.696 31.9106 290.944 32.2622 290.319 32.731C289.928 33.4536 289.557 34.5767 289.205 36.1001C288.854 37.6235 288.629 38.9907 288.532 40.2017L284.284 41.1392C284.284 41.3149 284.254 41.5395 284.196 41.813L284.137 42.3989C284.137 43.2388 284.186 44.0298 284.284 44.772C284.381 45.5142 284.557 46.3735 284.811 47.3501L288.004 47.9067Z" fill="#6B9DFF"/>
</svg>
